# xmcd CD database file
#
# Track frame offsets:
#	150
#	21881
#	33604
#	50679
#	64418
#	78229
#	94656
#	110507
#	122638
#	134337
#	153260
#	171247
#	184746
#	203789
#
# Disc length: 2955 seconds
#
# Revision: 0
# Processed by: cddbd v1.5.2PL0 Copyright (c) Steve Scherf et al.
# Submitted via: Feurio! 1.68 - http://www.feurio.com
#
DISCID=c00b890e
DTITLE=Vanatta - Writers In Arms
DYEAR=1900
DGENRE=Country
TTITLE0=Thunder Of The Storm
TTITLE1=Loven' You Baby
TTITLE2=Hangman's Hood
TTITLE3=Common Folk
TTITLE4=Tom Cat
TTITLE5=Deja-Vu On Route 66
TTITLE6=Too Much Is Not Enough
TTITLE7=Every Bird's Got To Fly
TTITLE8=Kick At The Cat
TTITLE9=Preacher Man Joe
TTITLE10=Cupid Shot An Arrow
TTITLE11=Sister Susie
TTITLE12=Ain't My Day To Die
TTITLE13=High And Lonesome
EXTD=
EXTT0=
EXTT1=
EXTT2=
EXTT3=
EXTT4=
EXTT5=
EXTT6=
EXTT7=
EXTT8=
EXTT9=
EXTT10=
EXTT11=
EXTT12=
EXTT13=
PLAYORDER=
